<?xml version="1.0" standalone="no"?>
<!DOCTYPE svg PUBLIC "-//W3C//DTD SVG 20010904//EN"
 "http://www.w3.org/TR/2001/REC-SVG-20010904/DTD/svg10.dtd">
<svg version="1.0" xmlns="http://www.w3.org/2000/svg"
 width="673.000000pt" height="643.000000pt" viewBox="0 0 673.000000 643.000000"
 preserveAspectRatio="xMidYMid meet">

<g transform="translate(0.000000,643.000000) scale(0.100000,-0.100000)"
fill="#000000" stroke="none">
<path d="M2044 5639 c-638 -367 -1165 -672 -1173 -676 -9 -6 141 -98 489 -298
276 -160 508 -291 515 -293 6 -2 308 168 670 378 l658 380 813 -472 814 -471
-2 -946 -3 -945 -657 -381 -658 -380 0 -587 c0 -324 2 -588 3 -588 2 0 449
257 993 571 544 314 1071 618 1172 676 l182 105 0 1532 -1 1531 -1132 653
c-623 359 -1220 704 -1328 766 l-196 114 -1159 -669z"/>
<path d="M550 4183 l0 -588 815 -470 814 -470 1 -945 1 -945 457 -263 c251
-144 481 -276 510 -293 l52 -31 0 1534 0 1533 -278 159 c-152 88 -736 425
-1297 749 -561 324 -1032 595 -1047 603 l-28 15 0 -588z"/>
</g>
</svg>
